<?xml version="1.0" encoding="windows-1252"?>
<!-- Generator: Adobe Illustrator 22.1.0, SVG Export Plug-In . SVG Version: 6.00 Build 0)  -->
<svg version="1.1" id="Layer_1" xmlns="http://www.w3.org/2000/svg" xmlns:xlink="http://www.w3.org/1999/xlink" x="0px" y="0px" width="64" height="64" viewBox="0 0 64 64" style="enable-background:new 0 0 64 64;" xml:space="preserve">
<g id="icon-m-website_2_">
	<g id="icon-m-website">
		<path style="fill:#FFFFFF;" d="M32,56.519c-13.509,0-24.5-10.99-24.5-24.5c0-13.509,10.991-24.5,24.5-24.5    c13.51,0,24.5,10.991,24.5,24.5C56.5,45.528,45.51,56.519,32,56.519z M32,9.519c-12.407,0-22.5,10.093-22.5,22.5    c0,12.406,10.093,22.5,22.5,22.5c12.406,0,22.5-10.094,22.5-22.5C54.5,19.612,44.406,9.519,32,9.519z"/>
		<rect x="8.5" y="31.012" style="opacity:0.6;fill:#FFFFFF;" width="47" height="2"/>
		<rect x="31" y="8.519" style="opacity:0.6;fill:#FFFFFF;" width="2" height="47"/>
		<rect x="11.69" y="18.512" style="opacity:0.6;fill:#FFFFFF;" width="40.619" height="2"/>
		<rect x="11.69" y="43.512" style="opacity:0.6;fill:#FFFFFF;" width="40.619" height="2"/>
		<path style="opacity:0.6;fill:#FFFFFF;" d="M32,56.519c-7.919,0-14.123-10.762-14.123-24.5S24.081,7.519,32,7.519    c7.92,0,14.123,10.762,14.123,24.5S39.92,56.519,32,56.519z M32,9.519c-6.685,0-12.123,10.093-12.123,22.5    c0,12.406,5.438,22.5,12.123,22.5s12.123-10.094,12.123-22.5C44.123,19.612,38.685,9.519,32,9.519z"/>
	</g>
	<rect id="icon-m-website_1_" style="opacity:0;fill:#FFFFFF;enable-background:new    ;" width="64" height="64"/>
</g>
</svg>