<?xml version="1.0" encoding="iso-8859-1"?>
<!-- Generator: Adobe Illustrator 17.0.1, SVG Export Plug-In . SVG Version: 6.00 Build 0)  -->
<!DOCTYPE svg PUBLIC "-//W3C//DTD SVG 1.1//EN" "http://www.w3.org/Graphics/SVG/1.1/DTD/svg11.dtd">
<svg version="1.1" id="Layer_1" xmlns="http://www.w3.org/2000/svg" xmlns:xlink="http://www.w3.org/1999/xlink" x="0px" y="0px"
	 width="64px" height="64px" viewBox="0 0 64 64" style="enable-background:new 0 0 64 64;" xml:space="preserve">
<g id="icon-m-speaker-mute">
	<rect id="icon-m-speaker-mute_1_" style="opacity:0;fill:#FFFFFF;" width="64" height="64"/>
	<g>
		<path style="opacity:0.6;fill:#FFFFFF;" d="M44.494,55c-0.248,0-0.493-0.093-0.683-0.27L30.599,42.393h-6.617
			c-3.07,0-5.476-2.699-5.476-6.145v-8.516c0-3.446,2.405-6.145,5.476-6.145h6.617L43.813,9.269c0.291-0.272,0.716-0.344,1.08-0.186
			c0.365,0.159,0.602,0.519,0.602,0.917v44c0,0.398-0.236,0.759-0.602,0.917C44.765,54.973,44.629,55,44.494,55z M23.981,23.587
			c-2.176,0-3.476,2.107-3.476,4.145v8.516c0,2.037,1.3,4.145,3.476,4.145h7.012c0.253,0,0.498,0.097,0.683,0.27l11.818,11.036
			V12.299l-11.819,11.02c-0.186,0.172-0.429,0.269-0.682,0.269H23.981z"/>
		<path style="fill:#FFFFFF;" d="M6.934,58.067c-0.256,0-0.512-0.098-0.707-0.293c-0.391-0.391-0.391-1.023,0-1.414L56.359,6.226
			c0.391-0.391,1.023-0.391,1.414,0s0.391,1.023,0,1.414L7.641,57.774C7.445,57.97,7.189,58.067,6.934,58.067z"/>
	</g>
</g>
</svg>
